<svg width="1966" height="1121" xmlns="http://www.w3.org/2000/svg" xmlns:xlink="http://www.w3.org/1999/xlink" xml:space="preserve" overflow="hidden"><defs><clipPath id="clip0"><rect x="1550" y="1586" width="1966" height="1121"/></clipPath></defs><g clip-path="url(#clip0)" transform="translate(-1550 -1586)"><rect x="1551" y="1587" width="1963" height="1118" fill="#FFFFFF"/><g><path d="M1690.5 2449.58 3464.5 2449.58M1690.5 2313.58 3464.5 2313.58M1690.5 2176.57 3464.5 2176.57M1690.5 2040.57 3464.5 2040.57M1690.5 1904.56 3464.5 1904.56M1690.5 1767.5 3464.5 1767.5" stroke="#E0E5EB" stroke-width="3.4375" stroke-linejoin="round" stroke-miterlimit="10" fill="none"/></g><g><path d="M1690.5 2585.5 3464.5 2585.5" stroke="#E0E5EB" stroke-width="3.4375" stroke-linejoin="round" stroke-miterlimit="10" fill="none" fill-rule="evenodd"/></g><g><path d="M1690.5 2585.5 1690.5 2599.5M1708.56 2585.5 1708.56 2599.5M1725.56 2585.5 1725.56 2599.5M1743.56 2585.5 1743.56 2599.5M1761.56 2585.5 1761.56 2599.5M1778.56 2585.5 1778.56 2599.5M1796.56 2585.5 1796.56 2599.5M1814.56 2585.5 1814.56 2599.5M1832.56 2585.5 1832.56 2599.5M1849.56 2585.5 1849.56 2599.5M1867.56 2585.5 1867.56 2599.5M1885.56 2585.5 1885.56 2599.5M1903.56 2585.5 1903.56 2599.5M1920.56 2585.5 1920.56 2599.5M1938.56 2585.5 1938.56 2599.5M1956.56 2585.5 1956.56 2599.5M1974.56 2585.5 1974.56 2599.5M1991.57 2585.5 1991.57 2599.5M2009.57 2585.5 2009.57 2599.5M2027.57 2585.5 2027.57 2599.5M2045.57 2585.5 2045.57 2599.5M2062.57 2585.5 2062.57 2599.5M2080.57 2585.5 2080.57 2599.5M2098.57 2585.5 2098.57 2599.5M2115.57 2585.5 2115.57 2599.5M2133.57 2585.5 2133.57 2599.5M2151.57 2585.5 2151.57 2599.5M2169.57 2585.5 2169.57 2599.5M2186.57 2585.5 2186.57 2599.5M2204.57 2585.5 2204.57 2599.5M2222.57 2585.5 2222.57 2599.5M2240.57 2585.5 2240.57 2599.5M2257.57 2585.5 2257.57 2599.5M2275.57 2585.5 2275.57 2599.5M2293.58 2585.5 2293.58 2599.5M2311.58 2585.5 2311.58 2599.5M2328.58 2585.5 2328.58 2599.5M2346.58 2585.5 2346.58 2599.5M2364.58 2585.5 2364.58 2599.5M2382.58 2585.5 2382.58 2599.5M2399.58 2585.5 2399.58 2599.5M2417.58 2585.5 2417.58 2599.5M2435.58 2585.5 2435.58 2599.5M2452.58 2585.5 2452.58 2599.5M2470.58 2585.5 2470.58 2599.5M2488.58 2585.5 2488.58 2599.5M2506.58 2585.5 2506.58 2599.5M2523.58 2585.5 2523.58 2599.5M2541.58 2585.5 2541.58 2599.5M2559.58 2585.5 2559.58 2599.5M2577.58 2585.5 2577.58 2599.5M2594.59 2585.5 2594.59 2599.5M2612.59 2585.5 2612.59 2599.5M2630.59 2585.5 2630.59 2599.5M2648.59 2585.5 2648.59 2599.5M2665.59 2585.5 2665.59 2599.5M2683.59 2585.5 2683.59 2599.5M2701.59 2585.5 2701.59 2599.5M2719.59 2585.5 2719.59 2599.5M2736.59 2585.5 2736.59 2599.5M2754.59 2585.5 2754.59 2599.5M2772.59 2585.5 2772.59 2599.5M2789.59 2585.5 2789.59 2599.5M2807.59 2585.5 2807.59 2599.5M2825.59 2585.5 2825.59 2599.5M2843.59 2585.5 2843.59 2599.5M2860.59 2585.5 2860.59 2599.5M2878.59 2585.5 2878.59 2599.5M2896.6 2585.5 2896.6 2599.5M2914.6 2585.5 2914.6 2599.5M2931.6 2585.5 2931.6 2599.5M2949.6 2585.5 2949.6 2599.5M2967.6 2585.5 2967.6 2599.5M2985.6 2585.5 2985.6 2599.5M3002.6 2585.5 3002.6 2599.5M3020.6 2585.5 3020.6 2599.5M3038.6 2585.5 3038.6 2599.5M3056.6 2585.5 3056.6 2599.5M3073.6 2585.5 3073.6 2599.5M3091.6 2585.5 3091.6 2599.5M3109.6 2585.5 3109.6 2599.5M3126.6 2585.5 3126.6 2599.5M3144.6 2585.5 3144.6 2599.5M3162.6 2585.5 3162.6 2599.5M3180.6 2585.5 3180.6 2599.5M3197.6 2585.5 3197.6 2599.5M3215.61 2585.5 3215.61 2599.5M3233.61 2585.5 3233.61 2599.5M3251.61 2585.5 3251.61 2599.5M3268.61 2585.5 3268.61 2599.5M3286.61 2585.5 3286.61 2599.5M3304.61 2585.5 3304.61 2599.5M3322.61 2585.5 3322.61 2599.5M3339.61 2585.5 3339.61 2599.5M3357.61 2585.5 3357.61 2599.5M3375.61 2585.5 3375.61 2599.5M3393.61 2585.5 3393.61 2599.5M3410.61 2585.5 3410.61 2599.5M3428.61 2585.5 3428.61 2599.5M3446.61 2585.5 3446.61 2599.5M3464.5 2585.5 3464.5 2599.5" stroke="#E0E5EB" stroke-width="3.4375" stroke-linejoin="round" stroke-miterlimit="10" fill="none"/></g><g><path d="M1699.5 2026.57 1716.56 2176.57 1734.56 2149.57 1752.56 2381.58 1770.56 2026.57 1787.56 1904.56 1805.56 2299.58 1823.56 2013.57 1841.56 2394.58 1858.56 1931.56 1876.56 2204.57 1894.56 2176.57 1912.56 1958.56 1929.56 2190.57 1947.56 1836.56 1965.56 2231.57 1982.57 1808.5 2000.57 2081.57 2018.57 2245.57 2036.57 2067.57 2053.57 2081.57 2071.57 2095.57 2089.57 2204.57 2107.57 2163.57 2124.57 2095.57 2142.57 2135.57 2160.57 1958.56 2178.57 2435.58 2195.57 2231.57 2213.57 2108.57 2231.57 2135.57 2249.57 2122.57 2266.57 2108.57 2284.58 2149.57 2302.58 1890.56 2319.58 2081.57 2337.58 2054.57 2355.58 2149.57 2373.58 2258.57 2390.58 2408.58 2408.58 2435.58 2426.58 2231.57 2444.58 2026.57 2461.58 2258.57 2479.58 2149.57 2497.58 2217.57 2515.58 1986.57 2532.58 2231.57 2550.58 2326.58 2568.58 2435.58 2586.58 2313.58 2603.59 2217.57 2621.59 2163.57 2639.59 2285.58 2656.59 2258.57 2674.59 2108.57 2692.59 2135.57 2710.59 2204.57 2727.59 2258.57 2745.59 2013.57 2763.59 2135.57 2781.59 2258.57 2798.59 2081.57 2816.59 2463.58 2834.59 2367.58 2852.59 1836.56 2869.59 2081.57 2887.59 2299.58 2905.6 2258.57 2922.6 2204.57 2940.6 2326.58 2958.6 2108.57 2976.6 2190.57 2993.6 1972.56 3011.6 2149.57 3029.6 2040.57 3047.6 2231.57 3064.6 2367.58 3082.6 2204.57 3100.6 2313.58 3118.6 2354.58 3135.6 2285.58 3153.6 2176.57 3171.6 2176.57 3189.6 2217.57 3206.61 2122.57 3224.61 1945.56 3242.61 2340.58 3259.61 2135.57 3277.61 2122.57 3295.61 2272.57 3313.61 2013.57 3330.61 2490.5 3348.61 2149.57 3366.61 2204.57 3384.61 2067.57 3401.61 1986.57 3419.61 2163.57 3437.61 2285.58 3455.5 2013.57" stroke="#70AD47" stroke-width="11.4583" stroke-linecap="round" stroke-linejoin="round" stroke-miterlimit="10" fill="none"/></g><g><path d="M1699.5 2125.5 3455.5 2208.5" stroke="#70AD47" stroke-width="6.875" stroke-linecap="round" stroke-linejoin="round" stroke-miterlimit="10" stroke-dasharray="13.75 13.75" fill="none" fill-rule="evenodd"/></g><g><text fill="#44546A" font-family="Calibri,Calibri_MSFontService,sans-serif" font-weight="400" font-size="41" transform="matrix(1 0 0 1 1601.69 2597)">0%</text></g><g><text fill="#44546A" font-family="Calibri,Calibri_MSFontService,sans-serif" font-weight="400" font-size="41" transform="matrix(1 0 0 1 1580.79 2461)">10%</text></g><g><text fill="#44546A" font-family="Calibri,Calibri_MSFontService,sans-serif" font-weight="400" font-size="41" transform="matrix(1 0 0 1 1580.79 2325)">20%</text></g><g><text fill="#44546A" font-family="Calibri,Calibri_MSFontService,sans-serif" font-weight="400" font-size="41" transform="matrix(1 0 0 1 1580.79 2188)">30%</text></g><g><text fill="#44546A" font-family="Calibri,Calibri_MSFontService,sans-serif" font-weight="400" font-size="41" transform="matrix(1 0 0 1 1580.79 2052)">40%</text></g><g><text fill="#44546A" font-family="Calibri,Calibri_MSFontService,sans-serif" font-weight="400" font-size="41" transform="matrix(1 0 0 1 1580.79 1916)">50%</text></g><g><text fill="#44546A" font-family="Calibri,Calibri_MSFontService,sans-serif" font-weight="400" font-size="41" transform="matrix(1 0 0 1 1580.79 1779)">60%</text></g><g><text fill="#44546A" font-family="Calibri,Calibri_MSFontService,sans-serif" font-weight="400" font-size="41" transform="matrix(6.12323e-17 -1 1 6.12323e-17 1713.05 2633)">1</text></g><g><text fill="#44546A" font-family="Calibri,Calibri_MSFontService,sans-serif" font-weight="400" font-size="41" transform="matrix(6.12323e-17 -1 1 6.12323e-17 1766.26 2633)">4</text></g><g><text fill="#44546A" font-family="Calibri,Calibri_MSFontService,sans-serif" font-weight="400" font-size="41" transform="matrix(6.12323e-17 -1 1 6.12323e-17 1819.47 2633)">7</text></g><g><text fill="#44546A" font-family="Calibri,Calibri_MSFontService,sans-serif" font-weight="400" font-size="41" transform="matrix(6.12323e-17 -1 1 6.12323e-17 1872.68 2654)">10</text></g><g><text fill="#44546A" font-family="Calibri,Calibri_MSFontService,sans-serif" font-weight="400" font-size="41" transform="matrix(6.12323e-17 -1 1 6.12323e-17 1925.89 2654)">13</text></g><g><text fill="#44546A" font-family="Calibri,Calibri_MSFontService,sans-serif" font-weight="400" font-size="41" transform="matrix(6.12323e-17 -1 1 6.12323e-17 1979.11 2654)">16</text></g><g><text fill="#44546A" font-family="Calibri,Calibri_MSFontService,sans-serif" font-weight="400" font-size="41" transform="matrix(6.12323e-17 -1 1 6.12323e-17 2032.32 2654)">19</text></g><g><text fill="#44546A" font-family="Calibri,Calibri_MSFontService,sans-serif" font-weight="400" font-size="41" transform="matrix(6.12323e-17 -1 1 6.12323e-17 2085.53 2654)">22</text></g><g><text fill="#44546A" font-family="Calibri,Calibri_MSFontService,sans-serif" font-weight="400" font-size="41" transform="matrix(6.12323e-17 -1 1 6.12323e-17 2138.74 2654)">25</text></g><g><text fill="#44546A" font-family="Calibri,Calibri_MSFontService,sans-serif" font-weight="400" font-size="41" transform="matrix(6.12323e-17 -1 1 6.12323e-17 2191.95 2654)">28</text></g><g><text fill="#44546A" font-family="Calibri,Calibri_MSFontService,sans-serif" font-weight="400" font-size="41" transform="matrix(6.12323e-17 -1 1 6.12323e-17 2245.17 2654)">31</text></g><g><text fill="#44546A" font-family="Calibri,Calibri_MSFontService,sans-serif" font-weight="400" font-size="41" transform="matrix(6.12323e-17 -1 1 6.12323e-17 2298.38 2654)">34</text></g><g><text fill="#44546A" font-family="Calibri,Calibri_MSFontService,sans-serif" font-weight="400" font-size="41" transform="matrix(6.12323e-17 -1 1 6.12323e-17 2351.59 2654)">37</text></g><g><text fill="#44546A" font-family="Calibri,Calibri_MSFontService,sans-serif" font-weight="400" font-size="41" transform="matrix(6.12323e-17 -1 1 6.12323e-17 2404.8 2654)">40</text></g><g><text fill="#44546A" font-family="Calibri,Calibri_MSFontService,sans-serif" font-weight="400" font-size="41" transform="matrix(6.12323e-17 -1 1 6.12323e-17 2458.01 2654)">43</text></g><g><text fill="#44546A" font-family="Calibri,Calibri_MSFontService,sans-serif" font-weight="400" font-size="41" transform="matrix(6.12323e-17 -1 1 6.12323e-17 2511.23 2654)">46</text></g><g><text fill="#44546A" font-family="Calibri,Calibri_MSFontService,sans-serif" font-weight="400" font-size="41" transform="matrix(6.12323e-17 -1 1 6.12323e-17 2564.44 2654)">49</text></g><g><text fill="#44546A" font-family="Calibri,Calibri_MSFontService,sans-serif" font-weight="400" font-size="41" transform="matrix(6.12323e-17 -1 1 6.12323e-17 2617.65 2654)">52</text></g><g><text fill="#44546A" font-family="Calibri,Calibri_MSFontService,sans-serif" font-weight="400" font-size="41" transform="matrix(6.12323e-17 -1 1 6.12323e-17 2670.86 2654)">55</text></g><g><text fill="#44546A" font-family="Calibri,Calibri_MSFontService,sans-serif" font-weight="400" font-size="41" transform="matrix(6.12323e-17 -1 1 6.12323e-17 2724.07 2654)">58</text></g><g><text fill="#44546A" font-family="Calibri,Calibri_MSFontService,sans-serif" font-weight="400" font-size="41" transform="matrix(6.12323e-17 -1 1 6.12323e-17 2777.29 2654)">61</text></g><g><text fill="#44546A" font-family="Calibri,Calibri_MSFontService,sans-serif" font-weight="400" font-size="41" transform="matrix(6.12323e-17 -1 1 6.12323e-17 2830.5 2654)">64</text></g><g><text fill="#44546A" font-family="Calibri,Calibri_MSFontService,sans-serif" font-weight="400" font-size="41" transform="matrix(6.12323e-17 -1 1 6.12323e-17 2883.71 2654)">67</text></g><g><text fill="#44546A" font-family="Calibri,Calibri_MSFontService,sans-serif" font-weight="400" font-size="41" transform="matrix(6.12323e-17 -1 1 6.12323e-17 2936.92 2654)">70</text></g><g><text fill="#44546A" font-family="Calibri,Calibri_MSFontService,sans-serif" font-weight="400" font-size="41" transform="matrix(6.12323e-17 -1 1 6.12323e-17 2990.13 2654)">73</text></g><g><text fill="#44546A" font-family="Calibri,Calibri_MSFontService,sans-serif" font-weight="400" font-size="41" transform="matrix(6.12323e-17 -1 1 6.12323e-17 3043.34 2654)">76</text></g><g><text fill="#44546A" font-family="Calibri,Calibri_MSFontService,sans-serif" font-weight="400" font-size="41" transform="matrix(6.12323e-17 -1 1 6.12323e-17 3096.56 2654)">79</text></g><g><text fill="#44546A" font-family="Calibri,Calibri_MSFontService,sans-serif" font-weight="400" font-size="41" transform="matrix(6.12323e-17 -1 1 6.12323e-17 3149.77 2654)">82</text></g><g><text fill="#44546A" font-family="Calibri,Calibri_MSFontService,sans-serif" font-weight="400" font-size="41" transform="matrix(6.12323e-17 -1 1 6.12323e-17 3202.98 2654)">85</text></g><g><text fill="#44546A" font-family="Calibri,Calibri_MSFontService,sans-serif" font-weight="400" font-size="41" transform="matrix(6.12323e-17 -1 1 6.12323e-17 3256.19 2654)">88</text></g><g><text fill="#44546A" font-family="Calibri,Calibri_MSFontService,sans-serif" font-weight="400" font-size="41" transform="matrix(6.12323e-17 -1 1 6.12323e-17 3309.41 2654)">91</text></g><g><text fill="#44546A" font-family="Calibri,Calibri_MSFontService,sans-serif" font-weight="400" font-size="41" transform="matrix(6.12323e-17 -1 1 6.12323e-17 3362.62 2654)">94</text></g><g><text fill="#44546A" font-family="Calibri,Calibri_MSFontService,sans-serif" font-weight="400" font-size="41" transform="matrix(6.12323e-17 -1 1 6.12323e-17 3415.83 2654)">97</text></g><g><text fill="#44546A" font-family="Calibri,Calibri_MSFontService,sans-serif" font-weight="400" font-size="41" transform="matrix(6.12323e-17 -1 1 6.12323e-17 3469.04 2675)">100</text></g><g><text fill="#44546A" font-family="Calibri,Calibri_MSFontService,sans-serif" font-weight="700" font-size="73" transform="matrix(1 0 0 1 2348.17 1691)">Repeat Rate</text></g><rect x="1551.5" y="1587.5" width="1963" height="1118" stroke="#E0E5EB" stroke-width="3.4375" stroke-linejoin="round" stroke-miterlimit="10" fill="none"/></g></svg>