<svg width="1966" height="1121" xmlns="http://www.w3.org/2000/svg" xmlns:xlink="http://www.w3.org/1999/xlink" xml:space="preserve" overflow="hidden"><defs><clipPath id="clip0"><rect x="1550" y="396" width="1966" height="1121"/></clipPath></defs><g clip-path="url(#clip0)" transform="translate(-1550 -396)"><rect x="1551" y="397" width="1963" height="1118" fill="#FFFFFF"/><g><path d="M1692.5 1305.54 3464.5 1305.54M1692.5 1214.54 3464.5 1214.54M1692.5 1123.54 3464.5 1123.54M1692.5 1032.53 3464.5 1032.53M1692.5 942.531 3464.5 942.531M1692.5 851.528 3464.5 851.528M1692.5 760.525 3464.5 760.525M1692.5 669.522 3464.5 669.522M1692.5 578.5 3464.5 578.5" stroke="#E0E5EB" stroke-width="3.4375" stroke-linejoin="round" stroke-miterlimit="10" fill="none"/></g><g><path d="M1692.5 1396.5 3464.5 1396.5" stroke="#E0E5EB" stroke-width="3.4375" stroke-linejoin="round" stroke-miterlimit="10" fill="none" fill-rule="evenodd"/></g><g><path d="M1692.5 1396.5 1692.5 1409.5M1710.56 1396.5 1710.56 1409.5M1728.56 1396.5 1728.56 1409.5M1745.56 1396.5 1745.56 1409.5M1763.56 1396.5 1763.56 1409.5M1781.56 1396.5 1781.56 1409.5M1799.56 1396.5 1799.56 1409.5M1816.56 1396.5 1816.56 1409.5M1834.56 1396.5 1834.56 1409.5M1852.56 1396.5 1852.56 1409.5M1869.56 1396.5 1869.56 1409.5M1887.56 1396.5 1887.56 1409.5M1905.56 1396.5 1905.56 1409.5M1923.56 1396.5 1923.56 1409.5M1940.56 1396.5 1940.56 1409.5M1958.56 1396.5 1958.56 1409.5M1976.56 1396.5 1976.56 1409.5M1993.57 1396.5 1993.57 1409.5M2011.57 1396.5 2011.57 1409.5M2029.57 1396.5 2029.57 1409.5M2046.57 1396.5 2046.57 1409.5M2064.57 1396.5 2064.57 1409.5M2082.57 1396.5 2082.57 1409.5M2100.57 1396.5 2100.57 1409.5M2117.57 1396.5 2117.57 1409.5M2135.57 1396.5 2135.57 1409.5M2153.57 1396.5 2153.57 1409.5M2170.57 1396.5 2170.57 1409.5M2188.57 1396.5 2188.57 1409.5M2206.57 1396.5 2206.57 1409.5M2224.57 1396.5 2224.57 1409.5M2241.57 1396.5 2241.57 1409.5M2259.57 1396.5 2259.57 1409.5M2277.57 1396.5 2277.57 1409.5M2294.58 1396.5 2294.58 1409.5M2312.58 1396.5 2312.58 1409.5M2330.58 1396.5 2330.58 1409.5M2348.58 1396.5 2348.58 1409.5M2365.58 1396.5 2365.58 1409.5M2383.58 1396.5 2383.58 1409.5M2401.58 1396.5 2401.58 1409.5M2418.58 1396.5 2418.58 1409.5M2436.58 1396.5 2436.58 1409.5M2454.58 1396.5 2454.58 1409.5M2472.58 1396.5 2472.58 1409.5M2489.58 1396.5 2489.58 1409.5M2507.58 1396.5 2507.58 1409.5M2525.58 1396.5 2525.58 1409.5M2542.58 1396.5 2542.58 1409.5M2560.58 1396.5 2560.58 1409.5M2578.58 1396.5 2578.58 1409.5M2596.59 1396.5 2596.59 1409.5M2613.59 1396.5 2613.59 1409.5M2631.59 1396.5 2631.59 1409.5M2649.59 1396.5 2649.59 1409.5M2666.59 1396.5 2666.59 1409.5M2684.59 1396.5 2684.59 1409.5M2702.59 1396.5 2702.59 1409.5M2720.59 1396.5 2720.59 1409.5M2737.59 1396.5 2737.59 1409.5M2755.59 1396.5 2755.59 1409.5M2773.59 1396.5 2773.59 1409.5M2790.59 1396.5 2790.59 1409.5M2808.59 1396.5 2808.59 1409.5M2826.59 1396.5 2826.59 1409.5M2844.59 1396.5 2844.59 1409.5M2861.59 1396.5 2861.59 1409.5M2879.59 1396.5 2879.59 1409.5M2897.6 1396.5 2897.6 1409.5M2914.6 1396.5 2914.6 1409.5M2932.6 1396.5 2932.6 1409.5M2950.6 1396.5 2950.6 1409.5M2968.6 1396.5 2968.6 1409.5M2985.6 1396.5 2985.6 1409.5M3003.6 1396.5 3003.6 1409.5M3021.6 1396.5 3021.6 1409.5M3038.6 1396.5 3038.6 1409.5M3056.6 1396.5 3056.6 1409.5M3074.6 1396.5 3074.6 1409.5M3092.6 1396.5 3092.6 1409.5M3109.6 1396.5 3109.6 1409.5M3127.6 1396.5 3127.6 1409.5M3145.6 1396.5 3145.6 1409.5M3162.6 1396.5 3162.6 1409.5M3180.6 1396.5 3180.6 1409.5M3198.6 1396.5 3198.6 1409.5M3215.61 1396.5 3215.61 1409.5M3233.61 1396.5 3233.61 1409.5M3251.61 1396.5 3251.61 1409.5M3269.61 1396.5 3269.61 1409.5M3286.61 1396.5 3286.61 1409.5M3304.61 1396.5 3304.61 1409.5M3322.61 1396.5 3322.61 1409.5M3339.61 1396.5 3339.61 1409.5M3357.61 1396.5 3357.61 1409.5M3375.61 1396.5 3375.61 1409.5M3393.61 1396.5 3393.61 1409.5M3410.61 1396.5 3410.61 1409.5M3428.61 1396.5 3428.61 1409.5M3446.61 1396.5 3446.61 1409.5M3464.5 1396.5 3464.5 1409.5" stroke="#E0E5EB" stroke-width="3.4375" stroke-linejoin="round" stroke-miterlimit="10" fill="none"/></g><g><path d="M1701.5 844.528 1719.56 888.529 1737.56 1033.53 1754.56 834.528 1772.56 727.524 1790.56 995.533 1807.56 860.528 1825.56 1058.53 1843.56 894.53 1861.56 1005.53 1878.56 1115.54 1896.56 888.529 1914.56 1144.54 1931.56 1090.54 1949.56 935.531 1967.56 872.529 1985.57 926.531 2002.57 989.533 2020.57 1058.53 2038.57 1046.53 2055.57 863.529 2073.57 910.53 2091.57 1030.53 2108.57 938.531 2126.57 1011.53 2144.57 926.531 2162.57 961.532 2179.57 866.529 2197.57 721.524 2215.57 885.529 2232.57 885.529 2250.57 929.531 2268.57 916.53 2286.58 860.528 2303.58 1046.53 2321.58 976.532 2339.58 825.527 2356.58 1036.53 2374.58 882.529 2392.58 1071.54 2410.58 1090.54 2427.58 916.53 2445.58 777.526 2463.58 875.529 2480.58 967.532 2498.58 875.529 2516.58 658.5 2534.58 1027.53 2551.58 882.529 2569.58 793.526 2587.59 875.529 2604.59 916.53 2622.59 897.53 2640.59 831.527 2658.59 1087.54 2675.59 878.529 2693.59 1049.53 2711.59 1096.54 2728.59 913.53 2746.59 1011.53 2764.59 967.532 2782.59 878.529 2799.59 809.527 2817.59 1087.54 2835.59 815.527 2852.59 847.528 2870.59 847.528 2888.59 812.527 2906.6 882.529 2923.6 1166.5 2941.6 736.524 2959.6 853.528 2976.6 878.529 2994.6 1121.54 3012.6 1036.53 3030.6 1046.53 3047.6 973.532 3065.6 1084.54 3083.6 825.527 3100.6 989.533 3118.6 822.527 3136.6 727.524 3154.6 894.53 3171.6 964.532 3189.6 863.529 3207.61 853.528 3224.61 777.526 3242.61 923.53 3260.61 1024.53 3277.61 1027.53 3295.61 856.528 3313.61 998.533 3331.61 1099.54 3348.61 1052.53 3366.61 850.528 3384.61 901.53 3401.61 1039.53 3419.61 910.53 3437.61 796.526 3455.5 926.531" stroke="#70AD47" stroke-width="11.4583" stroke-linecap="round" stroke-linejoin="round" stroke-miterlimit="10" fill="none"/></g><g><path d="M0 0 1754 17.9999" stroke="#70AD47" stroke-width="6.875" stroke-linecap="round" stroke-linejoin="round" stroke-miterlimit="10" stroke-dasharray="13.75 13.75" fill="none" fill-rule="evenodd" transform="matrix(1 0 0 -1 1701.5 940.5)"/></g><g><text fill="#44546A" font-family="Calibri,Calibri_MSFontService,sans-serif" font-weight="400" font-size="41" transform="matrix(1 0 0 1 1580.79 1408)">0:00</text></g><g><text fill="#44546A" font-family="Calibri,Calibri_MSFontService,sans-serif" font-weight="400" font-size="41" transform="matrix(1 0 0 1 1580.79 1317)">0:28</text></g><g><text fill="#44546A" font-family="Calibri,Calibri_MSFontService,sans-serif" font-weight="400" font-size="41" transform="matrix(1 0 0 1 1580.79 1226)">0:57</text></g><g><text fill="#44546A" font-family="Calibri,Calibri_MSFontService,sans-serif" font-weight="400" font-size="41" transform="matrix(1 0 0 1 1580.79 1135)">1:26</text></g><g><text fill="#44546A" font-family="Calibri,Calibri_MSFontService,sans-serif" font-weight="400" font-size="41" transform="matrix(1 0 0 1 1580.79 1045)">1:55</text></g><g><text fill="#44546A" font-family="Calibri,Calibri_MSFontService,sans-serif" font-weight="400" font-size="41" transform="matrix(1 0 0 1 1580.79 954)">2:24</text></g><g><text fill="#44546A" font-family="Calibri,Calibri_MSFontService,sans-serif" font-weight="400" font-size="41" transform="matrix(1 0 0 1 1580.79 863)">2:52</text></g><g><text fill="#44546A" font-family="Calibri,Calibri_MSFontService,sans-serif" font-weight="400" font-size="41" transform="matrix(1 0 0 1 1580.79 772)">3:21</text></g><g><text fill="#44546A" font-family="Calibri,Calibri_MSFontService,sans-serif" font-weight="400" font-size="41" transform="matrix(1 0 0 1 1580.79 681)">3:50</text></g><g><text fill="#44546A" font-family="Calibri,Calibri_MSFontService,sans-serif" font-weight="400" font-size="41" transform="matrix(1 0 0 1 1580.79 590)">4:19</text></g><g><text fill="#44546A" font-family="Calibri,Calibri_MSFontService,sans-serif" font-weight="400" font-size="41" transform="matrix(6.12323e-17 -1 1 6.12323e-17 1715.49 1444)">1</text></g><g><text fill="#44546A" font-family="Calibri,Calibri_MSFontService,sans-serif" font-weight="400" font-size="41" transform="matrix(6.12323e-17 -1 1 6.12323e-17 1768.63 1444)">4</text></g><g><text fill="#44546A" font-family="Calibri,Calibri_MSFontService,sans-serif" font-weight="400" font-size="41" transform="matrix(6.12323e-17 -1 1 6.12323e-17 1821.76 1444)">7</text></g><g><text fill="#44546A" font-family="Calibri,Calibri_MSFontService,sans-serif" font-weight="400" font-size="41" transform="matrix(6.12323e-17 -1 1 6.12323e-17 1874.9 1465)">10</text></g><g><text fill="#44546A" font-family="Calibri,Calibri_MSFontService,sans-serif" font-weight="400" font-size="41" transform="matrix(6.12323e-17 -1 1 6.12323e-17 1928.04 1465)">13</text></g><g><text fill="#44546A" font-family="Calibri,Calibri_MSFontService,sans-serif" font-weight="400" font-size="41" transform="matrix(6.12323e-17 -1 1 6.12323e-17 1981.18 1465)">16</text></g><g><text fill="#44546A" font-family="Calibri,Calibri_MSFontService,sans-serif" font-weight="400" font-size="41" transform="matrix(6.12323e-17 -1 1 6.12323e-17 2034.32 1465)">19</text></g><g><text fill="#44546A" font-family="Calibri,Calibri_MSFontService,sans-serif" font-weight="400" font-size="41" transform="matrix(6.12323e-17 -1 1 6.12323e-17 2087.46 1465)">22</text></g><g><text fill="#44546A" font-family="Calibri,Calibri_MSFontService,sans-serif" font-weight="400" font-size="41" transform="matrix(6.12323e-17 -1 1 6.12323e-17 2140.59 1465)">25</text></g><g><text fill="#44546A" font-family="Calibri,Calibri_MSFontService,sans-serif" font-weight="400" font-size="41" transform="matrix(6.12323e-17 -1 1 6.12323e-17 2193.73 1465)">28</text></g><g><text fill="#44546A" font-family="Calibri,Calibri_MSFontService,sans-serif" font-weight="400" font-size="41" transform="matrix(6.12323e-17 -1 1 6.12323e-17 2246.87 1465)">31</text></g><g><text fill="#44546A" font-family="Calibri,Calibri_MSFontService,sans-serif" font-weight="400" font-size="41" transform="matrix(6.12323e-17 -1 1 6.12323e-17 2300.01 1465)">34</text></g><g><text fill="#44546A" font-family="Calibri,Calibri_MSFontService,sans-serif" font-weight="400" font-size="41" transform="matrix(6.12323e-17 -1 1 6.12323e-17 2353.15 1465)">37</text></g><g><text fill="#44546A" font-family="Calibri,Calibri_MSFontService,sans-serif" font-weight="400" font-size="41" transform="matrix(6.12323e-17 -1 1 6.12323e-17 2406.29 1465)">40</text></g><g><text fill="#44546A" font-family="Calibri,Calibri_MSFontService,sans-serif" font-weight="400" font-size="41" transform="matrix(6.12323e-17 -1 1 6.12323e-17 2459.42 1465)">43</text></g><g><text fill="#44546A" font-family="Calibri,Calibri_MSFontService,sans-serif" font-weight="400" font-size="41" transform="matrix(6.12323e-17 -1 1 6.12323e-17 2512.56 1465)">46</text></g><g><text fill="#44546A" font-family="Calibri,Calibri_MSFontService,sans-serif" font-weight="400" font-size="41" transform="matrix(6.12323e-17 -1 1 6.12323e-17 2565.7 1465)">49</text></g><g><text fill="#44546A" font-family="Calibri,Calibri_MSFontService,sans-serif" font-weight="400" font-size="41" transform="matrix(6.12323e-17 -1 1 6.12323e-17 2618.84 1465)">52</text></g><g><text fill="#44546A" font-family="Calibri,Calibri_MSFontService,sans-serif" font-weight="400" font-size="41" transform="matrix(6.12323e-17 -1 1 6.12323e-17 2671.98 1465)">55</text></g><g><text fill="#44546A" font-family="Calibri,Calibri_MSFontService,sans-serif" font-weight="400" font-size="41" transform="matrix(6.12323e-17 -1 1 6.12323e-17 2725.12 1465)">58</text></g><g><text fill="#44546A" font-family="Calibri,Calibri_MSFontService,sans-serif" font-weight="400" font-size="41" transform="matrix(6.12323e-17 -1 1 6.12323e-17 2778.25 1465)">61</text></g><g><text fill="#44546A" font-family="Calibri,Calibri_MSFontService,sans-serif" font-weight="400" font-size="41" transform="matrix(6.12323e-17 -1 1 6.12323e-17 2831.39 1465)">64</text></g><g><text fill="#44546A" font-family="Calibri,Calibri_MSFontService,sans-serif" font-weight="400" font-size="41" transform="matrix(6.12323e-17 -1 1 6.12323e-17 2884.53 1465)">67</text></g><g><text fill="#44546A" font-family="Calibri,Calibri_MSFontService,sans-serif" font-weight="400" font-size="41" transform="matrix(6.12323e-17 -1 1 6.12323e-17 2937.67 1465)">70</text></g><g><text fill="#44546A" font-family="Calibri,Calibri_MSFontService,sans-serif" font-weight="400" font-size="41" transform="matrix(6.12323e-17 -1 1 6.12323e-17 2990.81 1465)">73</text></g><g><text fill="#44546A" font-family="Calibri,Calibri_MSFontService,sans-serif" font-weight="400" font-size="41" transform="matrix(6.12323e-17 -1 1 6.12323e-17 3043.95 1465)">76</text></g><g><text fill="#44546A" font-family="Calibri,Calibri_MSFontService,sans-serif" font-weight="400" font-size="41" transform="matrix(6.12323e-17 -1 1 6.12323e-17 3097.08 1465)">79</text></g><g><text fill="#44546A" font-family="Calibri,Calibri_MSFontService,sans-serif" font-weight="400" font-size="41" transform="matrix(6.12323e-17 -1 1 6.12323e-17 3150.22 1465)">82</text></g><g><text fill="#44546A" font-family="Calibri,Calibri_MSFontService,sans-serif" font-weight="400" font-size="41" transform="matrix(6.12323e-17 -1 1 6.12323e-17 3203.36 1465)">85</text></g><g><text fill="#44546A" font-family="Calibri,Calibri_MSFontService,sans-serif" font-weight="400" font-size="41" transform="matrix(6.12323e-17 -1 1 6.12323e-17 3256.5 1465)">88</text></g><g><text fill="#44546A" font-family="Calibri,Calibri_MSFontService,sans-serif" font-weight="400" font-size="41" transform="matrix(6.12323e-17 -1 1 6.12323e-17 3309.64 1465)">91</text></g><g><text fill="#44546A" font-family="Calibri,Calibri_MSFontService,sans-serif" font-weight="400" font-size="41" transform="matrix(6.12323e-17 -1 1 6.12323e-17 3362.78 1465)">94</text></g><g><text fill="#44546A" font-family="Calibri,Calibri_MSFontService,sans-serif" font-weight="400" font-size="41" transform="matrix(6.12323e-17 -1 1 6.12323e-17 3415.91 1465)">97</text></g><g><text fill="#44546A" font-family="Calibri,Calibri_MSFontService,sans-serif" font-weight="400" font-size="41" transform="matrix(6.12323e-17 -1 1 6.12323e-17 3469.05 1485)">100</text></g><g><text fill="#44546A" font-family="Calibri,Calibri_MSFontService,sans-serif" font-weight="700" font-size="73" transform="matrix(1 0 0 1 2289.15 502)">Search Duration</text></g><rect x="1551.5" y="397.5" width="1963" height="1118" stroke="#E0E5EB" stroke-width="3.4375" stroke-linejoin="round" stroke-miterlimit="10" fill="none"/></g></svg>